PathFileType	4	(X/Y/Z)	C:\Documents and Settings\rtobon\Desktop\NewMocap\New\NoT\ActorI_Run.trc
DataRate	CameraRate	NumFrames	NumMarkers	Units	OrigDataRate	OrigDataStartFrame	OrigNumFrames
120.00	120.00	       4	49	mm	120.00	66	       105
Frame#	Time	Root			LtFtHip			LtBkHip			RtFtHip			RtBkHip			Spine1			Spine2			Spine3			SpineOffsetLow			SpineOffsetHigh			LtCtChest			RtCtChest			LtChest			RtChest			LtShoulder			LtBicep			LtElbow			LtForeArm			LtWrist			LtPinky			LtThumb			LtMiddFing			RtShoulder			RtBicep			RtElbow			RtForeArm			RtWrist			RtPinky			RtThumb			RtMiddFing			LtThigh			LtKnee			LtCalf			LtAnkle			LtHeel			LtBall			LtToe			RtThigh			RtKnee			RtCalf			RtAnkle			RtHeel			RtBall			RtToe			TopHead			LfFtHead			LtBkHead			RtFtHead			RtBkHead			
		X1	Y1	Z1	X2	Y2	Z2	X3	Y3	Z3	X4	Y4	Z4	X5	Y5	Z5	X6	Y6	Z6	X7	Y7	Z7	X8	Y8	Z8	X9	Y9	Z9	X10	Y10	Z10	X11	Y11	Z11	X12	Y12	Z12	X13	Y13	Z13	X14	Y14	Z14	X15	Y15	Z15	X16	Y16	Z16	X17	Y17	Z17	X18	Y18	Z18	X19	Y19	Z19	X20	Y20	Z20	X21	Y21	Z21	X22	Y22	Z22	X23	Y23	Z23	X24	Y24	Z24	X25	Y25	Z25	X26	Y26	Z26	X27	Y27	Z27	X28	Y28	Z28	X29	Y29	Z29	X30	Y30	Z30	X31	Y31	Z31	X32	Y32	Z32	X33	Y33	Z33	X34	Y34	Z34	X35	Y35	Z35	X36	Y36	Z36	X37	Y37	Z37	X38	Y38	Z38	X39	Y39	Z39	X40	Y40	Z40	X41	Y41	Z41	X42	Y42	Z42	X43	Y43	Z43	X44	Y44	Z44	X45	Y45	Z45	X46	Y46	Z46	X47	Y47	Z47	X48	Y48	Z48	X49	Y49	Z49	
66	0.542	396.32419	892.06799	20.06197	610.53113	864.68976	-101.61565	421.34958	885.88861	-100.52021	619.52502	850.60797	151.02209	421.08163	879.99463	152.41780	343.73477	1012.90680	12.46957	293.30518	1137.46924	5.30449	274.99478	1238.57520	1.25358	380.50174	957.24451	102.04553	294.68994	1183.39600	-99.99412	572.69806	1171.21155	3.36078	526.69604	1222.86548	52.87429	506.27707	1248.47656	-70.56005	482.58231	1244.80176	128.55760	400.47198	1272.76855	-175.97264	536.53711	1107.00305	-199.57610	525.58673	960.99536	-249.32642	627.15698	1068.12183	-152.73987	719.43634	1075.08093	-141.57422	792.94098	1070.05542	-103.72477	693.70422	1133.18274	-93.49880	759.45630	1129.81567	-122.25802	358.68723	1248.53540	220.32144	454.17648	1092.49341	284.57025	402.60162	964.03857	358.86395	517.85065	1015.16528	284.15787	629.70630	978.33429	278.64545	698.33966	941.10529	236.74768	617.07538	1036.72119	235.84630	686.05707	1005.75177	267.42407	709.11530	677.17700	-143.73318	779.40625	481.57626	-178.49509	609.43811	448.44421	-174.08589	470.84952	302.59549	-149.42056	362.83621	324.47687	-64.24221	437.34421	187.37988	-168.90393	472.80084	85.77567	-138.31223	679.94318	574.68555	102.08112	684.73822	392.31039	120.79572	536.83350	289.21707	157.67949	407.75882	115.82695	98.29590	313.32959	60.16008	18.52672	489.97760	51.20338	102.91623	582.91699	43.80800	52.45320	169.58145	1488.65369	-3.65093	312.33096	1504.83386	-60.65420	242.67738	1381.90955	-80.04970	309.00150	1529.30872	63.13806	222.94788	1394.89636	97.56753	
67	0.550	425.18570	890.01990	17.95948	641.25763	865.13739	-100.44949	451.32996	885.19946	-102.04915	647.42798	848.27496	152.48846	449.30978	877.20477	149.42897	371.61865	1013.12677	14.66035	323.89532	1137.34473	7.49907	306.24924	1238.53455	3.58100	409.66501	955.03259	101.44186	324.18814	1184.11401	-97.04028	603.80298	1170.36316	3.59328	558.15997	1222.31641	52.98479	537.38403	1247.02747	-70.56238	513.83588	1244.41125	129.15457	431.67020	1271.20447	-174.70938	556.29651	1096.13818	-202.87273	529.62305	952.64935	-255.19331	647.51984	1044.71350	-159.80045	739.87140	1039.12585	-150.40248	812.73376	1023.75806	-115.42200	723.20679	1099.06128	-100.24504	786.52795	1087.61560	-131.80550	389.92966	1245.86829	222.04469	498.19940	1095.57214	282.43692	462.16840	961.50531	355.40640	568.10040	1027.35864	279.69733	683.15662	1005.93561	272.67938	755.76044	976.68884	229.03664	663.05847	1062.21484	229.33006	736.26355	1039.56433	258.98532	745.18048	690.07489	-138.40569	829.00244	499.29337	-174.47467	661.30475	454.63510	-173.46715	531.80304	300.78775	-151.35603	419.20648	314.13809	-70.00581	506.52814	183.76794	-172.07750	548.82739	85.42068	-141.98833	699.65558	566.46759	104.40810	695.22955	383.11179	123.98559	543.09796	285.00510	157.83534	409.29446	115.43940	96.83272	313.78220	61.34162	16.69058	489.93640	51.14622	102.70683	582.68640	43.61774	52.31542	201.68030	1488.92542	-2.66301	344.50775	1504.35681	-60.50925	274.80264	1381.33801	-77.99847	341.88220	1529.61572	63.67453	255.03094	1396.21484	99.17894	
68	0.558	455.16974	889.39264	16.82045	673.71533	866.64984	-99.54650	483.45364	885.66315	-103.49500	675.94293	845.64532	153.55844	477.82162	876.22961	148.27316	399.71143	1013.77679	15.27772	354.41974	1137.41663	9.60386	337.55444	1239.09583	5.74360	439.99194	954.17828	100.25051	354.63895	1185.91028	-94.79286	634.76685	1169.77600	4.31314	589.73706	1222.01221	54.15421	568.40881	1246.16895	-69.89565	545.91779	1244.69873	129.84827	462.72549	1270.70789	-172.84636	573.48724	1087.35388	-205.74063	533.17047	948.03363	-261.03217	663.50189	1022.68054	-165.74269	754.43628	1005.54651	-160.78403	826.22668	979.96234	-127.95590	747.44830	1066.12891	-109.44449	808.03687	1047.16248	-142.79121	421.02588	1243.74731	225.05038	541.19580	1100.58655	279.12534	520.89111	962.47723	350.36462	616.57379	1042.32556	274.32654	733.41711	1036.89063	265.91794	808.30176	1016.28558	221.24353	706.24750	1089.76440	222.24318	782.55878	1077.19519	250.17754	780.20081	703.13745	-133.25397	876.50623	517.25891	-170.53194	711.96960	460.54001	-172.27470	591.51086	298.59256	-153.30750	477.29691	301.61935	-73.82911	575.56567	179.60635	-175.42412	626.35199	85.14664	-144.87474	718.52454	557.25958	108.68336	703.51251	374.20398	126.84428	546.28094	283.35144	157.72321	410.31268	117.29979	95.08212	315.47702	63.93934	15.82590	489.87042	51.06428	102.41587	582.44269	43.49959	52.14879	233.87784	1488.89539	-2.20826	376.97946	1503.92651	-59.68874	306.24335	1380.70874	-76.47900	374.08627	1530.06543	63.87389	287.16284	1397.08521	100.93639	
69	0.567	486.78943	889.31000	14.61643	706.63568	869.17853	-98.47984	515.39990	887.41357	-104.90665	704.60541	842.49976	154.63228	507.45483	875.69855	146.70831	429.15222	1012.93323	15.51289	384.91257	1138.48364	11.76361	369.32529	1239.50598	8.75227	470.59378	954.21881	99.01351	384.59091	1187.54724	-92.45203	665.84692	1169.88391	5.10596	621.02747	1222.65466	55.00412	599.42120	1245.91382	-69.77573	577.27582	1245.94226	130.47835	493.47455	1271.15454	-171.30559	591.30219	1080.86975	-208.91286	535.84973	947.19666	-267.30054	677.29547	1003.81390	-173.61777	766.05719	975.84399	-172.41670	834.14081	940.83691	-141.77667	766.73407	1034.74487	-118.91124	824.01337	1009.68127	-154.34094	452.41403	1242.75037	227.31386	583.91846	1107.67480	276.85965	579.09338	966.09149	344.21118	663.12561	1059.36047	268.86633	779.26178	1068.71606	258.33392	855.67737	1058.56592	213.19514	744.95428	1119.12439	216.22159	822.67664	1115.44116	242.53148	814.81293	715.77539	-128.22903	921.76190	535.08478	-167.10710	761.76636	466.28629	-171.11922	651.51318	295.60458	-153.56990	536.23663	288.20822	-75.50323	645.14850	175.11667	-178.28499	703.00049	85.71834	-148.12521	737.32819	548.06586	113.75060	709.62323	366.25201	130.79727	550.34302	281.55762	157.88275	411.29974	119.94153	93.05946	316.21271	68.51077	15.28249	489.70712	51.68773	101.81762	582.65521	43.84684	51.88403	266.50809	1489.97571	-1.56707	409.28613	1503.71606	-59.35603	337.94708	1380.58557	-74.88716	406.69910	1530.71509	64.26391	318.65494	1398.23547	102.34914	
